<?xml version="1.0" encoding="UTF-8" standalone="no"?><!-- Generator: Gravit.io --><svg xmlns="http://www.w3.org/2000/svg" xmlns:xlink="http://www.w3.org/1999/xlink" style="isolation:isolate" viewBox="0 0 212 238" width="212pt" height="238pt"><defs><clipPath id="_clipPath_zsmvAc4lYAvubnGMEaJHLyZFqORPi3I8"><rect width="212" height="238"/></clipPath></defs><g clip-path="url(#_clipPath_zsmvAc4lYAvubnGMEaJHLyZFqORPi3I8)"><ellipse vector-effect="non-scaling-stroke" cx="99.57167999999999" cy="98.67637499999998" rx="63.42832" ry="62.11638499999998" fill="rgb(255,255,255)"/><path d=" M 95.693 160.793 L 90.11 160.271 C 82.258 159.537 74.697 157.473 67.821 154.186 C 34.803 138.403 22.584 99.117 40.909 67.665 C 50.895 50.528 71.584 37.492 90.65 36.755 L 95.333 36.56 L 95.333 60.86 L 105.467 61 L 105.057 86.104 L 105.057 110.922 L 110.099 110.922 L 110.099 123.887 L 105.057 123.887 L 105.057 136.919 C 101.815 136.777 98.644 136.995 95.403 136.853 L 95.146 98.856 L 95.333 60.86 L 79.965 60.86 L 71.594 86.489 C 63.33 111.432 63.225 111.835 63.43 117.643 L 63.639 123.527 L 74.083 123.68 C 79.828 123.765 85.876 123.746 86.371 123.761 C 86.41 128.228 86.329 131.446 86.329 136.853 L 95.403 136.853 L 95.693 160.793 L 101.024 160.299 C 129.574 157.654 152.164 139.069 159.143 112.722 C 161.455 103.998 161.309 91.776 158.794 83.336 C 154.708 69.621 148.286 60.116 137.055 51.154 C 127.737 43.719 113.814 38.258 101.15 37.071 L 95.403 36.56 L 95.693 12.752 L 102.356 13.252 C 134.397 15.656 162.792 34.438 176.235 62.121 C 182.877 75.798 185.507 88.259 184.779 102.603 C 183.214 133.404 164.483 161.427 136.411 174.966 C 125.616 180.173 108.975 184.377 99.114 184.39 L 95.693 184.394 L 95.693 160.793 Z  M 77.948 109.661 C 78.54 107.591 83.59 87.778 84.451 84.15 C 84.89 82.3 85.492 80.545 85.789 80.248 C 86.086 79.951 86.329 86.731 86.329 95.315 L 86.329 110.922 L 81.958 110.922 C 78.139 110.922 77.633 110.763 77.948 109.661 L 77.948 109.661 Z  M 105.057 45.424" fill="rgb(118,185,0)"/><g><path d=" M 49.142 63.527 L 54.054 57.79 L 55.966 59.428 L 52.816 63.106 L 55.571 65.465 L 58.582 61.948 L 60.446 63.544 L 57.435 67.06 L 61.486 70.529 L 59.724 72.587 L 49.142 63.527 Z " fill="rgb(255,255,255)"/><path d=" M 68.164 61.303 Q 68.369 61.15 68.557 61.009 Q 68.732 60.852 68.843 60.715 Q 69.027 60.498 69.027 60.178 Q 69.028 59.858 68.811 59.568 Q 68.581 59.26 68.274 59.17 Q 67.984 59.067 67.711 59.165 Q 67.549 59.232 67.344 59.386 Q 67.126 59.522 66.938 59.662 Q 66.75 59.803 66.557 59.973 Q 66.369 60.114 66.258 60.25 Q 65.848 60.77 66.333 61.419 Q 66.55 61.71 66.84 61.813 Q 67.147 61.903 67.407 61.788 Q 67.587 61.707 67.788 61.584 Q 67.976 61.443 68.164 61.303 L 68.164 61.303 Z  M 70.305 61.78 Q 70.223 62.134 69.919 62.548 Q 69.62 62.931 69.158 63.276 Q 68.714 63.608 68.432 63.765 Q 68.18 63.927 67.843 64.046 Q 66.844 64.419 65.927 64.119 Q 65.01 63.819 64.308 62.879 Q 63.58 61.905 63.654 60.97 Q 63.746 60.023 64.293 59.295 Q 64.503 59.005 64.797 58.758 Q 65.08 58.494 65.524 58.162 Q 66.259 57.613 66.955 57.439 L 66.176 56.397 Q 65.793 55.884 65.268 55.824 Q 64.76 55.75 64.265 56.12 Q 63.82 56.452 63.657 56.947 Q 63.511 57.429 63.702 58.219 L 61.257 58.368 Q 61.139 57.71 61.174 57.152 Q 61.196 56.576 61.406 56.073 Q 61.603 55.552 61.988 55.105 Q 62.377 54.628 62.975 54.181 Q 63.71 53.632 64.47 53.437 Q 65.217 53.225 65.904 53.324 Q 66.608 53.411 67.209 53.788 Q 67.797 54.147 68.231 54.728 L 72.611 60.59 L 70.936 61.841 L 70.404 61.307 Q 70.382 61.456 70.365 61.576 Q 70.335 61.678 70.305 61.78 L 70.305 61.78 Z " fill="rgb(255,255,255)"/><path d=" M 79.259 57.48 Q 77.677 58.176 76.396 57.807 Q 75.107 57.419 74.264 56.298 Q 73.932 55.862 73.678 55.391 Q 73.424 54.92 73.072 54.119 Q 72.72 53.318 72.544 52.813 Q 72.368 52.308 72.262 51.748 Q 72.014 50.389 72.588 49.204 Q 73.181 48.011 74.704 47.341 Q 76.11 46.722 77.322 46.935 Q 78.535 47.147 79.429 48.385 Q 79.804 48.919 80.105 49.603 L 80.233 49.896 L 77.871 50.935 L 77.802 50.779 Q 77.708 50.564 77.673 50.486 Q 77.639 50.408 77.516 50.182 Q 76.812 48.954 75.582 49.495 Q 74.957 49.77 74.808 50.278 Q 74.65 50.767 74.828 51.435 Q 74.909 51.726 75.087 52.183 Q 75.285 52.633 75.474 53.062 Q 75.671 53.511 75.843 53.902 Q 76.035 54.284 76.194 54.54 Q 76.575 55.141 77.118 55.369 Q 77.661 55.596 78.344 55.295 Q 79.028 54.994 79.333 54.417 Q 79.638 53.84 79.682 53.145 L 81.962 53.983 Q 81.845 55.2 81.083 56.117 Q 80.333 57.007 79.259 57.48 L 79.259 57.48 Z " fill="rgb(255,255,255)"/><path d=" M 88.197 54.387 L 85.612 54.843 L 83.058 40.368 L 85.642 39.912 L 86.462 44.555 Q 86.752 44.114 87.233 43.769 Q 87.731 43.399 88.466 43.27 Q 90.063 42.988 91.161 43.812 Q 92.26 44.637 92.545 46.254 L 93.806 53.397 L 91.201 53.857 L 90 47.05 Q 89.87 46.315 89.421 45.982 Q 88.969 45.629 88.234 45.759 Q 87.561 45.877 87.215 46.372 Q 86.866 46.845 86.995 47.58 L 88.197 54.387 Z " fill="rgb(255,255,255)"/><path d=" M 102.01 47.424 Q 102.572 47.672 103.046 47.958 Q 103.521 48.223 103.839 48.606 Q 104.179 48.99 104.339 49.513 Q 104.52 50.037 104.474 50.782 Q 104.431 51.485 104.118 52.043 Q 103.827 52.602 103.29 52.996 Q 102.774 53.392 102.078 53.584 Q 101.382 53.776 100.551 53.724 Q 99.061 53.632 98.033 52.97 Q 97.028 52.288 96.624 51.215 L 98.594 49.777 Q 98.934 50.503 99.443 50.92 Q 99.953 51.315 100.74 51.363 Q 101.166 51.39 101.454 51.237 Q 101.764 51.063 101.787 50.68 Q 101.812 50.276 101.527 50.044 Q 101.242 49.813 100.577 49.515 L 99.765 49.166 Q 98.33 48.521 97.803 47.719 Q 97.297 46.918 97.373 45.683 Q 97.416 44.98 97.73 44.401 Q 98.044 43.822 98.561 43.406 Q 99.079 42.989 99.753 42.795 Q 100.451 42.582 101.26 42.632 Q 103.176 42.751 103.992 43.72 Q 104.809 44.69 104.716 46.181 Q 104.708 46.308 104.7 46.436 Q 104.692 46.564 104.663 46.69 L 102.044 46.528 Q 102.075 46.38 102.085 46.21 Q 102.125 45.571 101.844 45.276 Q 101.563 44.981 101.073 44.95 Q 100.562 44.919 100.288 45.201 Q 100.016 45.462 99.993 45.824 Q 99.967 46.25 100.271 46.525 Q 100.595 46.802 101.241 47.077 L 102.01 47.424 Z " fill="rgb(118,185,0)"/><path d=" M 111.009 55.621 Q 109.354 55.124 108.618 54.012 Q 107.889 52.88 107.975 51.481 Q 108.005 50.933 108.118 50.41 Q 108.23 49.887 108.482 49.049 Q 108.733 48.211 108.927 47.713 Q 109.121 47.214 109.403 46.72 Q 110.096 45.524 111.302 44.995 Q 112.528 44.472 114.121 44.951 Q 115.593 45.392 116.377 46.34 Q 117.162 47.288 117.039 48.811 Q 116.978 49.46 116.763 50.176 L 116.671 50.482 L 114.199 49.74 L 114.248 49.577 Q 114.315 49.352 114.34 49.27 Q 114.364 49.188 114.417 48.937 Q 114.679 47.546 113.392 47.159 Q 112.738 46.963 112.295 47.253 Q 111.857 47.523 111.559 48.146 Q 111.432 48.42 111.271 48.884 Q 111.13 49.354 110.995 49.803 Q 110.854 50.273 110.731 50.682 Q 110.629 51.097 110.584 51.395 Q 110.484 52.1 110.749 52.625 Q 111.015 53.15 111.73 53.365 Q 112.445 53.58 113.052 53.338 Q 113.659 53.097 114.143 52.597 L 115.335 54.714 Q 114.456 55.564 113.281 55.768 Q 112.132 55.958 111.009 55.621 L 111.009 55.621 Z " fill="rgb(118,185,0)"/><path d=" M 119.798 59.107 L 117.549 57.756 L 125.119 45.156 L 127.368 46.508 L 124.94 50.549 Q 125.449 50.407 126.038 50.462 Q 126.656 50.51 127.296 50.894 Q 128.686 51.729 128.974 53.072 Q 129.262 54.415 128.416 55.823 L 124.68 62.041 L 122.413 60.678 L 125.973 54.753 Q 126.357 54.113 126.237 53.568 Q 126.127 53.005 125.487 52.62 Q 124.902 52.268 124.317 52.414 Q 123.742 52.542 123.358 53.182 L 119.798 59.107 Z " fill="rgb(118,185,0)"/><path d=" M 131.23 65.179 Q 131.41 65.361 131.575 65.528 Q 131.755 65.68 131.906 65.772 Q 132.146 65.924 132.463 65.881 Q 132.78 65.837 133.038 65.582 Q 133.311 65.312 133.359 64.996 Q 133.421 64.695 133.286 64.437 Q 133.197 64.286 133.017 64.104 Q 132.852 63.907 132.687 63.74 Q 132.522 63.573 132.327 63.406 Q 132.162 63.239 132.012 63.148 Q 131.441 62.812 130.864 63.382 Q 130.606 63.637 130.544 63.938 Q 130.497 64.255 130.646 64.497 Q 130.751 64.664 130.901 64.846 Q 131.065 65.012 131.23 65.179 L 131.23 65.179 Z  M 131.052 67.366 Q 130.69 67.333 130.239 67.089 Q 129.818 66.846 129.413 66.436 Q 129.023 66.041 128.828 65.784 Q 128.634 65.556 128.469 65.239 Q 127.962 64.3 128.134 63.351 Q 128.305 62.402 129.14 61.577 Q 130.005 60.722 130.94 60.667 Q 131.891 60.628 132.688 61.07 Q 133.004 61.238 133.289 61.496 Q 133.589 61.739 133.979 62.133 Q 134.624 62.786 134.891 63.451 L 135.817 62.536 Q 136.272 62.087 136.26 61.558 Q 136.263 61.046 135.828 60.606 Q 135.438 60.211 134.926 60.117 Q 134.429 60.039 133.673 60.336 L 133.189 57.935 Q 133.824 57.728 134.382 57.686 Q 134.956 57.629 135.483 57.767 Q 136.025 57.891 136.521 58.211 Q 137.047 58.531 137.572 59.062 Q 138.217 59.715 138.514 60.44 Q 138.827 61.151 138.823 61.845 Q 138.834 62.554 138.543 63.201 Q 138.268 63.833 137.752 64.343 L 132.548 69.486 L 131.078 67.999 L 131.534 67.399 Q 131.383 67.398 131.263 67.397 Q 131.157 67.381 131.052 67.366 L 131.052 67.366 Z " fill="rgb(118,185,0)"/><path d=" M 143.306 70.386 L 136.274 74.913 L 134.854 72.707 L 141.886 68.18 L 141.239 67.176 L 143.176 65.928 L 143.823 66.933 L 144.576 66.448 Q 145.904 65.593 147.113 65.855 Q 148.34 66.106 149.102 67.29 Q 149.54 67.971 149.674 68.494 Q 149.837 69.024 149.847 69.55 L 147.62 69.994 Q 147.6 69.449 147.265 68.929 Q 147.045 68.588 146.673 68.523 Q 146.302 68.458 145.889 68.724 L 145.243 69.139 L 146.387 70.915 L 144.449 72.162 L 143.306 70.386 Z " fill="rgb(118,185,0)"/><path d=" M 141.313 84.32 Q 140.862 84.068 140.492 83.621 Q 140.121 83.174 139.803 82.406 Q 139.288 81.164 139.761 80.021 Q 140.234 78.878 141.711 78.265 L 146.5 76.279 L 146.042 75.176 L 148.171 74.293 L 148.628 75.396 L 151.308 74.285 L 152.313 76.709 L 149.633 77.82 L 150.614 80.185 L 148.486 81.068 L 147.505 78.703 L 142.776 80.664 Q 142.323 80.852 142.165 81.195 Q 142.015 81.557 142.178 81.952 Q 142.423 82.543 142.989 82.793 L 141.313 84.32 L 141.313 84.32 Z " fill="rgb(118,185,0)"/><path d=" M 148.479 90.106 Q 148.38 90.712 148.222 91.243 Q 148.086 91.769 147.795 92.174 Q 147.508 92.599 147.042 92.885 Q 146.581 93.192 145.848 93.335 Q 145.157 93.47 144.538 93.308 Q 143.924 93.166 143.407 92.745 Q 142.895 92.345 142.534 91.72 Q 142.173 91.095 142.014 90.278 Q 141.729 88.812 142.111 87.651 Q 142.519 86.507 143.455 85.846 L 145.343 87.392 Q 144.725 87.903 144.45 88.5 Q 144.196 89.093 144.347 89.867 Q 144.428 90.286 144.649 90.526 Q 144.894 90.782 145.271 90.709 Q 145.669 90.631 145.821 90.298 Q 145.974 89.964 146.095 89.245 L 146.229 88.371 Q 146.492 86.82 147.136 86.108 Q 147.783 85.417 148.998 85.18 Q 149.689 85.046 150.328 85.204 Q 150.968 85.362 151.501 85.758 Q 152.035 86.154 152.391 86.758 Q 152.773 87.379 152.928 88.175 Q 153.295 90.06 152.562 91.093 Q 151.828 92.127 150.363 92.413 Q 150.237 92.437 150.111 92.462 Q 149.986 92.486 149.856 92.49 L 149.355 89.914 Q 149.505 89.906 149.673 89.874 Q 150.301 89.751 150.516 89.405 Q 150.731 89.059 150.637 88.577 Q 150.54 88.075 150.197 87.881 Q 149.876 87.682 149.52 87.752 Q 149.102 87.833 148.911 88.196 Q 148.725 88.58 148.621 89.274 L 148.479 90.106 Z " fill="rgb(118,185,0)"/><path d=" M 143.077 99.583 L 143.081 96.959 L 150.348 96.97 L 153.748 96.975 L 153.745 99.194 L 152.699 99.341 Q 153.381 99.769 153.657 100.346 Q 153.934 100.922 153.933 101.583 Q 153.933 101.733 153.911 101.967 Q 153.911 102.223 153.868 102.522 L 151.286 102.518 Q 151.394 102.027 151.394 101.686 Q 151.416 101.345 151.416 101.131 Q 151.417 100.449 151.013 100.021 Q 150.629 99.594 149.819 99.593 L 143.077 99.583 Z " fill="rgb(118,185,0)"/><path d=" M 144.226 108.75 Q 144.176 109.001 144.129 109.231 Q 144.103 109.465 144.111 109.641 Q 144.119 109.926 144.331 110.165 Q 144.544 110.404 144.9 110.476 Q 145.276 110.552 145.565 110.415 Q 145.85 110.298 145.989 110.044 Q 146.064 109.885 146.115 109.634 Q 146.187 109.387 146.234 109.157 Q 146.28 108.927 146.31 108.672 Q 146.357 108.442 146.349 108.266 Q 146.309 107.605 145.514 107.444 Q 145.159 107.372 144.874 107.488 Q 144.585 107.626 144.467 107.885 Q 144.387 108.065 144.32 108.29 Q 144.273 108.52 144.226 108.75 L 144.226 108.75 Z  M 142.312 109.82 Q 142.137 109.502 142.088 108.991 Q 142.056 108.506 142.17 107.941 Q 142.28 107.398 142.386 107.093 Q 142.466 106.804 142.638 106.491 Q 143.135 105.547 144.019 105.16 Q 144.902 104.773 146.052 105.006 Q 147.244 105.248 147.811 105.994 Q 148.374 106.762 148.451 107.67 Q 148.488 108.025 148.432 108.406 Q 148.398 108.791 148.287 109.334 Q 148.105 110.233 147.702 110.826 L 148.977 111.085 Q 149.604 111.212 150.036 110.908 Q 150.464 110.625 150.587 110.018 Q 150.697 109.475 150.489 108.997 Q 150.277 108.541 149.609 108.079 L 151.333 106.339 Q 151.859 106.75 152.205 107.19 Q 152.572 107.635 152.75 108.15 Q 152.95 108.669 152.961 109.259 Q 152.988 109.874 152.84 110.606 Q 152.658 111.505 152.221 112.156 Q 151.805 112.812 151.227 113.196 Q 150.644 113.6 149.945 113.719 Q 149.267 113.843 148.556 113.699 L 141.385 112.244 L 141.8 110.195 L 142.553 110.239 Q 142.47 110.114 142.403 110.013 Q 142.357 109.917 142.312 109.82 L 142.312 109.82 Z " fill="rgb(118,185,0)"/><path d=" M 138.398 121.089 Q 138.262 120.591 138.322 120.014 Q 138.381 119.436 138.706 118.67 Q 139.231 117.433 140.378 116.97 Q 141.525 116.506 142.998 117.131 L 147.77 119.156 L 148.237 118.057 L 150.357 118.957 L 149.891 120.056 L 152.562 121.19 L 151.536 123.605 L 148.866 122.472 L 147.866 124.829 L 145.745 123.928 L 146.745 121.572 L 142.032 119.572 Q 141.58 119.38 141.225 119.507 Q 140.861 119.654 140.694 120.047 Q 140.444 120.636 140.662 121.215 L 138.398 121.089 L 138.398 121.089 Z " fill="rgb(118,185,0)"/></g><path d=" M 58.984 76.293 C 68.644 62.496 84.77 54.792 101.275 56.089 C 117.779 57.387 132.148 67.488 138.958 82.579 C 145.768 97.671 143.982 115.455 134.274 129.218 L 96.677 102.687 L 58.984 76.293 Z " fill="none"/></g></svg>