<?xml version="1.0" encoding="UTF-8" standalone="no"?>
<!-- Created with Inkscape (http://www.inkscape.org/) -->

<svg
   xmlns:dc="http://purl.org/dc/elements/1.1/"
   xmlns:cc="http://creativecommons.org/ns#"
   xmlns:rdf="http://www.w3.org/1999/02/22-rdf-syntax-ns#"
   xmlns:svg="http://www.w3.org/2000/svg"
   xmlns="http://www.w3.org/2000/svg"
   xmlns:sodipodi="http://sodipodi.sourceforge.net/DTD/sodipodi-0.dtd"
   xmlns:inkscape="http://www.inkscape.org/namespaces/inkscape"
   version="1.1"
   id="svg869"
   width="212"
   height="238"
   viewBox="0 0 212 238"
   sodipodi:docname="htw.svg"
   inkscape:version="0.92.4 (5da689c313, 2019-01-14)"
   inkscape:export-filename="/home/ich/bitmap.png"
   inkscape:export-xdpi="5000"
   inkscape:export-ydpi="5000">
  <metadata
     id="metadata875">
    <rdf:RDF>
      <cc:Work
         rdf:about="">
        <dc:format>image/svg+xml</dc:format>
        <dc:type
           rdf:resource="http://purl.org/dc/dcmitype/StillImage" />
        <dc:title></dc:title>
      </cc:Work>
    </rdf:RDF>
  </metadata>
  <defs
     id="defs873" />
  <sodipodi:namedview
     pagecolor="#ffffff"
     bordercolor="#666666"
     borderopacity="1"
     objecttolerance="10"
     gridtolerance="10"
     guidetolerance="10"
     inkscape:pageopacity="0"
     inkscape:pageshadow="2"
     inkscape:window-width="1920"
     inkscape:window-height="1031"
     id="namedview871"
     showgrid="true"
     inkscape:zoom="5.8573975"
     inkscape:cx="60.825804"
     inkscape:cy="138.96256"
     inkscape:window-x="0"
     inkscape:window-y="25"
     inkscape:window-maximized="1"
     inkscape:current-layer="svg869"
     inkscape:pagecheckerboard="true">
    <inkscape:grid
       type="xygrid"
       id="grid831" />
  </sodipodi:namedview>
  <path
     style="fill:#76b900;stroke-width:0.7203154;fill-opacity:1"
     d="M 95.693359 12.751953 L 95.693359 36.560547 L 101.15039 37.072266 C 113.81504 38.259041 127.73599 43.718847 137.05469 51.154297 C 148.28592 60.115777 154.7082 69.621197 158.79492 83.335938 C 161.30989 91.775981 161.45374 103.99784 159.14258 112.72266 C 152.16343 139.0695 129.57413 157.65416 101.02344 160.29883 L 95.693359 160.79297 L 95.693359 184.39453 L 99.113281 184.39062 C 108.97382 184.3784 125.61655 180.1734 136.41211 174.9668 C 164.48428 161.42784 183.21506 133.40397 184.7793 102.60352 C 185.50779 88.259218 182.87831 75.798474 176.23633 62.121094 C 162.79325 34.438631 134.3969 15.655725 102.35547 13.251953 L 95.693359 12.751953 z M 95.693359 160.79297 L 95.402344 136.85352 L 86.328125 136.85352 C 86.328125 131.44607 86.410454 128.22841 86.371094 123.76172 C 85.875878 123.74692 79.828499 123.76389 74.083984 123.67969 L 63.638672 123.52734 L 63.429688 117.64258 C 63.224117 111.83452 63.330454 111.4325 71.59375 86.490234 L 79.964844 61.220703 L 95.332031 60.859375 L 95.146484 98.857422 L 95.332031 136.49219 C 98.57345 136.63418 101.81522 136.77598 105.05664 136.91797 L 105.05664 123.88672 L 110.09961 123.88672 L 110.09961 110.92188 L 105.05664 110.92188 L 105.05664 86.103516 L 105.4668 60.408203 L 95.693359 60.330078 L 95.693359 36.560547 L 90.650391 36.753906 C 71.583462 37.490739 50.895397 50.528786 40.910156 67.666016 C 22.584578 99.117419 34.802874 138.40257 67.820312 154.18555 C 74.696585 157.47254 82.257365 159.5376 90.109375 160.27148 L 95.693359 160.79297 z M 85.642578 39.912109 L 86.460938 44.554688 C 86.654549 44.260566 86.911935 43.999389 87.232422 43.769531 C 87.564443 43.523195 87.976593 43.356035 88.466797 43.269531 C 89.53124 43.081694 90.429691 43.262975 91.162109 43.8125 C 91.894528 44.362026 92.354613 45.175458 92.544922 46.253906 L 93.806641 53.396484 L 91.201172 53.857422 L 90 47.050781 C 89.913496 46.560577 89.720939 46.204045 89.421875 45.982422 C 89.12034 45.746793 88.724579 45.671308 88.234375 45.757812 C 87.786188 45.836902 87.445529 46.041546 87.214844 46.371094 C 86.981686 46.686635 86.90959 47.089874 86.996094 47.580078 L 88.197266 54.386719 L 85.613281 54.84375 L 83.058594 40.367188 L 85.642578 39.912109 z M 76.705078 46.880859 C 76.915186 46.881634 77.120228 46.900144 77.322266 46.935547 C 78.130416 47.077156 78.833447 47.559454 79.429688 48.384766 C 79.67964 48.740926 79.904981 49.147898 80.105469 49.603516 L 80.234375 49.896484 L 77.871094 50.935547 L 77.802734 50.779297 C 77.739721 50.636103 77.696738 50.538399 77.673828 50.486328 C 77.650915 50.434255 77.597381 50.332121 77.515625 50.181641 C 77.046438 49.362574 76.402143 49.133263 75.582031 49.494141 C 75.165467 49.677444 74.90804 49.94031 74.808594 50.279297 C 74.70342 50.605266 74.709911 50.990342 74.828125 51.435547 C 74.882285 51.629251 74.969159 51.87846 75.087891 52.183594 L 75.474609 53.0625 L 75.84375 53.902344 C 75.971332 54.156968 76.087129 54.368273 76.193359 54.539062 C 76.447479 54.940003 76.755286 55.217624 77.117188 55.369141 C 77.479087 55.520657 77.888132 55.495412 78.34375 55.294922 C 78.799367 55.094435 79.130397 54.802781 79.333984 54.417969 C 79.537572 54.033156 79.652495 53.607967 79.681641 53.144531 L 81.962891 53.982422 C 81.884807 54.793695 81.591661 55.505335 81.083984 56.117188 C 80.583598 56.710293 79.975736 57.165416 79.259766 57.480469 C 78.205336 57.944455 77.25046 58.052391 76.396484 57.806641 C 75.53678 57.547872 74.825543 57.046034 74.263672 56.298828 C 74.04236 56.007756 73.846975 55.70461 73.677734 55.390625 C 73.508494 55.07664 73.307123 54.652864 73.072266 54.119141 C 72.837408 53.585417 72.660139 53.149397 72.542969 52.8125 C 72.425798 52.475602 72.332547 52.120875 72.261719 51.748047 C 72.096105 50.842012 72.205191 49.995011 72.587891 49.205078 C 72.983609 48.409417 73.689701 47.786645 74.705078 47.339844 C 75.408031 47.03052 76.074755 46.878535 76.705078 46.880859 z M 65.201172 53.302734 C 65.44014 53.283968 65.675379 53.291092 65.904297 53.324219 C 66.373526 53.381959 66.808373 53.53607 67.208984 53.787109 C 67.601084 54.026755 67.941038 54.341146 68.230469 54.728516 L 72.611328 60.589844 L 70.935547 61.841797 L 70.404297 61.306641 C 70.389897 61.406171 70.376761 61.496549 70.365234 61.576172 L 70.304688 61.78125 C 70.250214 62.017241 70.122377 62.271331 69.919922 62.546875 C 69.720346 62.802513 69.46582 63.045549 69.158203 63.275391 C 68.861978 63.49672 68.619565 63.660721 68.431641 63.765625 C 68.263623 63.873409 68.068605 63.965685 67.84375 64.044922 C 67.177697 64.294024 66.538928 64.319363 65.927734 64.119141 C 65.316542 63.91892 64.776791 63.505535 64.308594 62.878906 C 63.823372 62.229491 63.60481 61.593548 63.654297 60.970703 C 63.715177 60.339346 63.927999 59.780661 64.292969 59.294922 C 64.432697 59.101753 64.600309 58.922436 64.796875 58.757812 C 64.984928 58.581798 65.227213 58.383439 65.523438 58.162109 C 66.013346 57.796065 66.491223 57.555234 66.955078 57.439453 L 66.175781 56.396484 C 65.920401 56.054687 65.617372 55.864676 65.267578 55.824219 C 64.929177 55.775245 64.594076 55.874223 64.263672 56.121094 C 63.967447 56.342423 63.76689 56.617506 63.658203 56.947266 C 63.560908 57.268512 63.574124 57.692297 63.701172 58.21875 L 61.255859 58.367188 C 61.177011 57.928998 61.150399 57.524924 61.173828 57.152344 C 61.188748 56.76837 61.266264 56.407656 61.40625 56.072266 C 61.537724 55.725482 61.731739 55.403671 61.988281 55.105469 C 62.247703 54.787361 62.575845 54.479584 62.974609 54.181641 C 63.464519 53.815596 63.964155 53.567425 64.470703 53.4375 C 64.719721 53.366841 64.962204 53.321501 65.201172 53.302734 z M 54.052734 57.791016 L 55.966797 59.427734 L 52.816406 63.105469 L 55.570312 65.464844 L 58.582031 61.947266 L 60.445312 63.542969 L 57.435547 67.060547 L 61.486328 70.529297 L 59.724609 72.587891 L 49.142578 63.527344 L 54.052734 57.791016 z M 67.988281 59.117188 C 67.894416 59.116304 67.802019 59.131521 67.710938 59.164062 C 67.602766 59.209376 67.480469 59.282612 67.34375 59.384766 C 67.198519 59.475525 67.062826 59.56847 66.9375 59.662109 C 66.812175 59.755749 66.684847 59.859111 66.556641 59.972656 C 66.431315 60.066296 66.331935 60.159113 66.257812 60.25 C 65.984116 60.596526 66.008548 60.986978 66.332031 61.419922 C 66.476747 61.613607 66.646546 61.743882 66.839844 61.8125 C 67.044535 61.872607 67.234552 61.863596 67.408203 61.787109 C 67.527768 61.733283 67.653271 61.666232 67.787109 61.583984 L 68.164062 61.302734 L 68.556641 61.009766 C 68.673454 60.904733 68.769629 60.805731 68.84375 60.714844 C 68.966324 60.569999 69.026956 60.391067 69.027344 60.177734 C 69.027731 59.964401 68.955262 59.762045 68.810547 59.568359 C 68.657319 59.363281 68.478129 59.230027 68.273438 59.169922 C 68.176789 59.135613 68.082146 59.118071 67.988281 59.117188 z M 85.789062 80.248047 C 85.4922 80.544907 84.889962 82.301311 84.451172 84.150391 C 83.590184 87.778631 78.53899 107.59155 77.947266 109.66211 C 77.632449 110.76371 78.139643 110.92188 81.958984 110.92188 L 86.328125 110.92188 L 86.328125 95.314453 C 86.328125 86.7307 86.085926 79.951187 85.789062 80.248047 z "
     id="path879" />
  <path
     inkscape:connector-curvature="0"
     id="path917"
     style="font-style:normal;font-variant:normal;font-weight:bold;font-stretch:normal;font-size:21.33333397px;line-height:1.25;font-family:'HTWBerlin Office';-inkscape-font-specification:'HTWBerlin Office Bold';letter-spacing:1px;word-spacing:0px;fill:#76b900;fill-opacity:1;stroke:none"
     d="m 102.01028,47.423684 q 0.56172,0.248522 1.03563,0.534356 0.47522,0.264541 0.79349,0.647609 0.33956,0.384386 0.49955,0.907273 0.18129,0.524206 0.13514,1.269445 -0.0435,0.702655 -0.35591,1.260414 -0.2911,0.559079 -0.82849,0.953288 -0.5161,0.395528 -1.21196,0.587557 -0.69587,0.19203 -1.52628,0.140612 -1.49048,-0.09229 -2.518193,-0.7544 -1.005101,-0.682085 -1.408936,-1.754425 l 1.969988,-1.438338 q 0.339759,0.726386 0.848342,1.142612 0.509901,0.394933 1.297729,0.443714 0.42585,0.02637 0.7132,-0.126833 0.30996,-0.173176 0.33369,-0.556442 0.025,-0.404558 -0.25986,-0.635941 -0.28491,-0.231383 -0.95045,-0.529083 l -0.811957,-0.349513 q -1.434908,-0.644576 -1.962344,-1.446705 -0.506144,-0.800811 -0.429677,-2.035779 0.04351,-0.702654 0.357226,-1.281707 0.313718,-0.579052 0.831133,-0.995873 0.517416,-0.41682 1.191987,-0.610168 0.697182,-0.213322 1.506302,-0.163222 1.91633,0.118656 2.73264,1.08829 0.8163,0.969634 0.72401,2.460113 -0.008,0.127756 -0.0158,0.255511 -0.008,0.127755 -0.0371,0.254192 l -2.61899,-0.162163 q 0.0305,-0.14773 0.0411,-0.31807 0.0396,-0.638777 -0.2414,-0.934038 -0.28096,-0.29526 -0.77069,-0.325584 -0.51102,-0.03164 -0.78499,0.250634 -0.27265,0.260982 -0.295065,0.622956 -0.02637,0.425851 0.277205,0.701137 0.32486,0.276606 0.97043,0.551694 z" />
  <path
     inkscape:connector-curvature="0"
     id="path919"
     style="font-style:normal;font-variant:normal;font-weight:bold;font-stretch:normal;font-size:21.33333397px;line-height:1.25;font-family:'HTWBerlin Office';-inkscape-font-specification:'HTWBerlin Office Bold';letter-spacing:1px;word-spacing:0px;fill:#76b900;fill-opacity:1;stroke:none"
     d="m 111.00869,55.620739 q -1.65509,-0.496657 -2.39062,-1.6083 -0.7294,-1.132075 -0.64348,-2.531773 0.0307,-0.547619 0.14312,-1.070711 0.11242,-0.523093 0.36381,-1.360854 0.2514,-0.83776 0.44555,-1.336327 0.19416,-0.498566 0.47618,-0.99304 0.69278,-1.195317 1.89841,-1.724461 1.22605,-0.523012 2.81984,-0.04475 1.47119,0.441472 2.25577,1.389649 0.78458,0.948177 0.66187,2.470474 -0.0613,0.649784 -0.27595,1.364946 l -0.092,0.306498 -2.47242,-0.741919 0.049,-0.163466 q 0.0675,-0.224765 0.092,-0.306498 0.0245,-0.08173 0.0777,-0.333062 0.26165,-1.391511 -1.02564,-1.7778 -0.65386,-0.19621 -1.09729,0.09392 -0.4373,0.269692 -0.73568,0.892896 -0.12671,0.273802 -0.28817,0.737633 -0.14102,0.469964 -0.27592,0.919494 -0.14102,0.469963 -0.26365,0.878627 -0.1022,0.414795 -0.14718,0.713123 -0.10017,0.704952 0.16543,1.230116 0.2656,0.525163 0.98076,0.739768 0.71516,0.214605 1.32206,-0.02647 0.60689,-0.241073 1.0912,-0.741662 l 1.19113,2.11701 q -0.87871,0.849975 -2.05365,1.054227 -1.14839,0.189949 -2.27221,-0.147286 z" />
  <path
     inkscape:connector-curvature="0"
     id="path921"
     style="font-style:normal;font-variant:normal;font-weight:bold;font-stretch:normal;font-size:21.33333397px;line-height:1.25;font-family:'HTWBerlin Office';-inkscape-font-specification:'HTWBerlin Office Bold';letter-spacing:1px;word-spacing:0px;fill:#76b900;fill-opacity:1;stroke:none"
     d="m 119.7979,59.106986 -2.24923,-1.351416 7.57013,-12.599365 2.24923,1.351416 -2.42815,4.041306 q 0.50864,-0.142375 1.09764,-0.08713 0.61828,0.04794 1.25831,0.432491 1.38977,0.835021 1.67798,2.177917 0.28821,1.342897 -0.5578,2.750954 l -3.73562,6.217393 -2.26752,-1.362403 3.55982,-5.92481 q 0.38455,-0.640026 0.26415,-1.185237 -0.10941,-0.563497 -0.74944,-0.948046 -0.58516,-0.351588 -1.17063,-0.205601 -0.57449,0.1277 -0.95904,0.767726 z" />
  <path
     inkscape:connector-curvature="0"
     id="path923"
     style="font-style:normal;font-variant:normal;font-weight:bold;font-stretch:normal;font-size:21.33333397px;line-height:1.25;font-family:'HTWBerlin Office';-inkscape-font-specification:'HTWBerlin Office Bold';letter-spacing:1px;word-spacing:0px;fill:#76b900;fill-opacity:1;stroke:none"
     d="m 131.23043,65.1794 q 0.17995,0.182085 0.3449,0.348996 0.18012,0.151915 0.33044,0.243313 0.24046,0.152271 0.55751,0.108887 0.31704,-0.04339 0.57499,-0.298311 0.27313,-0.269922 0.32025,-0.586433 0.0621,-0.301337 -0.0721,-0.558578 -0.0896,-0.151381 -0.26957,-0.333466 -0.16477,-0.19708 -0.32973,-0.363991 -0.16495,-0.16691 -0.36007,-0.333999 -0.16495,-0.166911 -0.31527,-0.258309 -0.57125,-0.335247 -1.14786,0.234588 -0.25795,0.254927 -0.32007,0.556264 -0.0471,0.316511 0.1023,0.558757 0.10461,0.166554 0.25439,0.348461 0.16496,0.16691 0.32991,0.333821 z m -0.17884,2.1863 q -0.36186,-0.03231 -0.81297,-0.276332 -0.42095,-0.243847 -0.82583,-0.653538 -0.38989,-0.394516 -0.58448,-0.652113 -0.19476,-0.227428 -0.35882,-0.545185 -0.50736,-0.938277 -0.33582,-1.887633 0.17154,-0.949356 1.00609,-1.774117 0.8649,-0.854752 1.80051,-0.909571 0.9506,-0.03965 1.74751,0.402529 0.3158,0.167801 0.60089,0.425932 0.30027,0.243135 0.69016,0.637652 0.64481,0.652469 0.91242,1.317798 l 0.92559,-0.914735 q 0.45522,-0.44987 0.44325,-0.977923 0.003,-0.512879 -0.43185,-0.952917 -0.38989,-0.394516 -0.90223,-0.488051 -0.49735,-0.07836 -1.25337,0.218881 L 133.189,57.934974 q 0.63481,-0.207446 1.19321,-0.249406 0.57357,-0.05696 1.10073,0.08192 0.54234,0.123883 1.03827,0.443599 0.52609,0.319894 1.05094,0.850974 0.64481,0.652469 0.94223,1.378315 0.3126,0.710849 0.3085,1.404745 0.0109,0.709069 -0.27954,1.356019 -0.27526,0.631954 -0.79117,1.141806 l -5.20458,5.14351 -1.46957,-1.487023 0.4561,-0.600717 q -0.15085,-8.9e-4 -0.27153,-0.0016 -0.1055,-0.01571 -0.211,-0.03142 z" />
  <path
     inkscape:connector-curvature="0"
     id="path925"
     style="font-style:normal;font-variant:normal;font-weight:bold;font-stretch:normal;font-size:21.33333397px;line-height:1.25;font-family:'HTWBerlin Office';-inkscape-font-specification:'HTWBerlin Office Bold';letter-spacing:1px;word-spacing:0px;fill:#76b900;fill-opacity:1;stroke:none"
     d="m 143.30604,70.386406 -7.03168,4.526542 -1.42032,-2.206371 7.03168,-4.526542 -0.64664,-1.004527 1.9373,-1.247108 0.64665,1.004527 0.75339,-0.484987 q 1.32741,-0.8545 2.53631,-0.592482 1.22683,0.25047 1.98895,1.434376 0.4388,0.681644 0.57243,1.204533 0.16312,0.529281 0.17242,1.056093 l -2.22621,0.443602 q -0.0208,-0.54475 -0.35571,-1.064952 -0.2194,-0.340821 -0.59116,-0.405962 -0.37177,-0.06514 -0.78434,0.200447 l -0.64577,0.415703 1.14319,1.775859 -1.93731,1.247109 z" />
  <path
     inkscape:connector-curvature="0"
     id="path927"
     style="font-style:normal;font-variant:normal;font-weight:bold;font-stretch:normal;font-size:21.33333397px;line-height:1.25;font-family:'HTWBerlin Office';-inkscape-font-specification:'HTWBerlin Office Bold';letter-spacing:1px;word-spacing:0px;fill:#76b900;fill-opacity:1;stroke:none"
     d="m 141.31258,84.319825 q -0.45087,-0.251818 -0.82101,-0.698786 -0.37014,-0.446967 -0.68888,-1.215492 -0.51488,-1.241462 -0.042,-2.384482 0.47285,-1.14302 1.95078,-1.755978 l 4.7885,-1.985985 -0.45767,-1.103523 2.12822,-0.88266 0.45767,1.103523 2.67999,-1.111498 1.00525,2.423808 -2.67998,1.111498 0.98073,2.364691 -2.12822,0.88266 -0.98074,-2.364691 -4.72938,1.961466 q -0.45323,0.187974 -0.61133,0.530689 -0.14993,0.362421 0.0135,0.756537 0.24519,0.591172 0.81093,0.841538 l -1.67635,1.526685 z" />
  <path
     inkscape:connector-curvature="0"
     id="path929"
     style="font-style:normal;font-variant:normal;font-weight:bold;font-stretch:normal;font-size:21.33333397px;line-height:1.25;font-family:'HTWBerlin Office';-inkscape-font-specification:'HTWBerlin Office Bold';letter-spacing:1px;word-spacing:0px;fill:#76b900;fill-opacity:1;stroke:none"
     d="m 148.4791,90.106119 q -0.0993,0.606154 -0.25683,1.136702 -0.13656,0.526471 -0.42731,0.930823 -0.28667,0.425292 -0.75254,0.711603 -0.4618,0.307252 -1.1947,0.449949 -0.69102,0.134544 -1.30941,-0.0276 -0.61431,-0.141201 -1.13096,-0.562222 -0.51257,-0.400081 -0.87338,-1.025317 -0.36081,-0.625236 -0.51982,-1.4419 -0.28539,-1.465808 0.0971,-2.626973 0.40748,-1.144301 1.34385,-1.80476 l 1.88742,1.545103 q -0.61764,0.511466 -0.89264,1.108356 -0.25405,0.592814 -0.1032,1.367598 0.0815,0.418802 0.30207,0.658407 0.24554,0.256468 0.62246,0.183081 0.39786,-0.07747 0.55018,-0.411397 0.15232,-0.333933 0.27314,-1.052942 l 0.13415,-0.873743 q 0.26313,-1.550873 0.90689,-2.263031 0.64784,-0.691218 1.86237,-0.927688 0.69102,-0.134544 1.33035,0.02352 0.63932,0.158063 1.17284,0.554067 0.53351,0.396005 0.89024,1.0003 0.38175,0.621159 0.53668,1.416884 0.36694,1.88461 -0.36633,2.91847 -0.73326,1.033859 -2.19907,1.319255 -0.12564,0.02446 -0.25128,0.04892 -0.12564,0.02446 -0.25536,0.02798 l -0.50148,-2.575634 q 0.15066,-0.0076 0.31818,-0.04022 0.6282,-0.122313 0.84335,-0.468476 0.21514,-0.346164 0.12136,-0.827787 -0.0978,-0.502563 -0.43993,-0.696765 -0.32115,-0.198279 -0.67713,-0.128969 -0.4188,0.08154 -0.60893,0.444568 -0.18605,0.383967 -0.29,1.077959 z" />
  <path
     inkscape:connector-curvature="0"
     id="path931"
     style="font-style:normal;font-variant:normal;font-weight:bold;font-stretch:normal;font-size:21.33333397px;line-height:1.25;font-family:'HTWBerlin Office';-inkscape-font-specification:'HTWBerlin Office Bold';letter-spacing:1px;word-spacing:0px;fill:#76b900;fill-opacity:1;stroke:none"
     d="m 143.07695,99.582577 0.004,-2.623996 10.66666,0.01647 -0.003,2.218666 -1.04556,0.14772 q 0.682,0.42772 0.95845,1.004153 0.27644,0.57643 0.27542,1.23776 -2.3e-4,0.14933 -0.0219,0.38397 -3.9e-4,0.256 -0.0435,0.5546 l -2.58133,-0.004 q 0.10742,-0.4905 0.10795,-0.83184 0.0219,-0.3413 0.0222,-0.55463 0.001,-0.68266 -0.40362,-1.10996 -0.38334,-0.427263 -1.194,-0.428513 z" />
  <path
     inkscape:connector-curvature="0"
     id="path933"
     style="font-style:normal;font-variant:normal;font-weight:bold;font-stretch:normal;font-size:21.33333397px;line-height:1.25;font-family:'HTWBerlin Office';-inkscape-font-specification:'HTWBerlin Office Bold';letter-spacing:1px;word-spacing:0px;fill:#76b900;fill-opacity:1;stroke:none"
     d="m 144.22646,108.75025 q -0.0509,0.2509 -0.0975,0.48088 -0.0257,0.23423 -0.0178,0.40997 0.008,0.28452 0.22034,0.52357 0.21273,0.23905 0.56816,0.31113 0.37634,0.0763 0.66539,-0.061 0.28482,-0.11638 0.42357,-0.37122 0.0757,-0.15878 0.12661,-0.40967 0.0718,-0.24666 0.11843,-0.47664 0.0466,-0.22999 0.0766,-0.48512 0.0466,-0.22999 0.0387,-0.40573 -0.0401,-0.66115 -0.83456,-0.82227 -0.35543,-0.0721 -0.64024,0.0443 -0.28906,0.13729 -0.4069,0.39637 -0.08,0.17969 -0.14752,0.40543 -0.0466,0.22999 -0.0933,0.45997 z m -1.91488,1.07011 q -0.17487,-0.31844 -0.2237,-0.829 -0.0322,-0.48541 0.0823,-1.04992 0.11024,-0.5436 0.21565,-0.84874 0.0803,-0.28846 0.25265,-0.60179 0.49622,-0.94421 1.38005,-1.33094 0.88382,-0.38672 2.03375,-0.15352 1.19174,0.24167 1.75874,0.98791 0.56276,0.76715 0.63981,1.67525 0.0367,0.35572 -0.0187,0.7363 -0.0345,0.38482 -0.14474,0.92843 -0.18232,0.89903 -0.58556,1.49205 l 1.27538,0.25864 q 0.62723,0.12719 1.05898,-0.17707 0.42751,-0.28335 0.55047,-0.88968 0.11024,-0.5436 -0.0977,-1.02111 -0.21215,-0.45661 -0.88033,-0.91862 l 1.72423,-1.74003 q 0.52605,0.41143 0.87213,0.85166 0.36698,0.44447 0.54551,0.95956 0.19943,0.51933 0.21039,1.10928 0.0276,0.61509 -0.12076,1.34686 -0.18231,0.89904 -0.61918,1.55054 -0.41596,0.65575 -0.99435,1.03911 -0.58264,0.40426 -1.28166,0.52372 -0.67811,0.12369 -1.38898,-0.0205 l -7.17136,-1.4543 0.41552,-2.04896 0.75297,0.0439 q -0.0833,-0.12574 -0.15001,-0.22633 -0.0458,-0.0964 -0.0915,-0.1927 z" />
  <path
     inkscape:connector-curvature="0"
     id="path935"
     style="font-style:normal;font-variant:normal;font-weight:bold;font-stretch:normal;font-size:21.33333397px;line-height:1.25;font-family:'HTWBerlin Office';-inkscape-font-specification:'HTWBerlin Office Bold';letter-spacing:1px;word-spacing:0px;fill:#76b900;fill-opacity:1;stroke:none"
     d="m 138.39825,121.08896 q -0.13623,-0.49813 -0.0767,-1.07539 0.0596,-0.57727 0.38459,-1.34316 0.52504,-1.2372 1.67189,-1.70068 1.14685,-0.46347 2.61972,0.16157 l 4.77207,2.02512 0.4667,-1.09973 2.12092,0.90005 -0.46669,1.09974 2.67079,1.13341 -1.02507,2.41549 -2.67079,-1.1334 -1.00006,2.35658 -2.12093,-0.90006 1.00007,-2.35658 -4.71316,-2.00013 q -0.45168,-0.19168 -0.80698,-0.0644 -0.36364,0.14696 -0.53032,0.53972 -0.25001,0.58915 -0.0323,1.16823 l -2.26384,-0.12642 z" />
  <path
     style="fill:none;fill-opacity:1;stroke:none;stroke-width:0.88292634;stroke-miterlimit:4;stroke-dasharray:none;stroke-opacity:1"
     id="path904"
     sodipodi:type="arc"
     sodipodi:cx="-138.09143"
     sodipodi:cy="-28.661768"
     sodipodi:rx="46.015373"
     sodipodi:ry="47.087551"
     sodipodi:start="0"
     sodipodi:end="3.1451524"
     d="m -92.076057,-28.661768 a 46.015373,47.087551 0 0 1 -23.054993,40.806923 46.015373,47.087551 0 0 1 -46.06257,-0.0839 46.015373,47.087551 0 0 1 -22.91289,-40.890646 l 46.01508,0.167619 z"
     transform="matrix(-0.81914085,-0.57359242,0.57356044,-0.81916324,0,0)" />
</svg>
